{"title":"Focus 2015 720p HDRIP HC x264 AAC REPACK Pimp4003","uid":11755113,"size":2003290342,"categoryP":"video","categoryS":"hd___movies","magnet":"?xt=urn:btih:1e3bbb2c0c4c9f17aad1b1e29c7e6c1f1f7d8294&amp;dn=Focus+2015+720p+HDRIP+HC+x264+AAC+REPACK+Pimp4003&amp;tr=udp%3A%2F%2Ftracker.openbittorrent.com%3A80&amp;tr=udp%3A%2F%2Fopen.demonii.com%3A1337&amp;tr=udp%3A%2F%2Ftracker.coppersurfer.tk%3A6969&amp;tr=udp%3A%2F%2Fexodus.desync.com%3A6969","seeders":53,"leechers":0,"uploader":"shawnmurthy","files":1,"time":1426350304,"description":"REPACK BECAUSE AUDIO IS FIXED AND SYNCED ENJOY...PIMP4003 OUT\n\nSCREENSHOTS GO HERE...http://pimp4003DOTnet/torrents.php?id=1e3bbb2c0c4c9f17aad1b1e29c7e6c1f1f7d8294\n\nI am looking for: Pre-Retail Supplier Unreleased DVD/BluRay/Web-Dls/R5/CAM/TS If you have something to offer, please contact ME: &lt;a class=&quot;__cf_email__&quot; href=&quot;/cdn-cgi/l/email-protection&quot; data-cfemail=&quot;04746d697430343437446c71776c69656d682a676b692a&quot;&gt;[email&amp;#160;protected]&lt;/a&gt;&lt;script cf-hash='f9e31' type=&quot;text/javascript&quot;&gt;\n/* &lt;![CDATA[ */!function(){try{var t=&quot;currentScript&quot;in document?document.currentScript:function(){for(var t=document.getElementsByTagName(&quot;script&quot;),e=t.length;e--;)if(t[e].getAttribute(&quot;cf-hash&quot;))return t[e]}();if(t&amp;&amp;t.previousSibling){var e,r,n,i,c=t.previousSibling,a=c.getAttribute(&quot;data-cfemail&quot;);if(a){for(e=&quot;&quot;,r=parseInt(a.substr(0,2),16),n=2;a.length-n;n+=2)i=parseInt(a.substr(n,2),16)^r,e+=String.fromCharCode(i);e=document.createTextNode(e),c.parentNode.replaceChild(e,c)}}}catch(u){}}();/* ]]&gt; */&lt;/script&gt; WE CAN WORK OUT A GREAT DEAL THAT WORKS OUT FOR EVERY PARTY.\n &lt;a href=&quot;\nhttp://i.imgur.com/J3ny9bJ.jpg&quot; rel=&quot;nofollow&quot; target=&quot;_NEW&quot;&gt;\nhttp://i.imgur.com/J3ny9bJ.jpg&lt;/a&gt;\n &lt;a href=&quot;\nhttp://i.imgur.com/SpsuXOR.png&quot; rel=&quot;nofollow&quot; target=&quot;_NEW&quot;&gt;\nhttp://i.imgur.com/SpsuXOR.png&lt;/a&gt;\n\nPIMP THE ONE AND ONLY PIMPSTER.....PRESENTS\n\nfacebookDOTcom/OfficialPimp4003\n &lt;a href=&quot;\nhttp://i.imgur.com/RFgFHTp.jpg&quot; rel=&quot;nofollow&quot; target=&quot;_NEW&quot;&gt;\nhttp://i.imgur.com/RFgFHTp.jpg&lt;/a&gt;\n\nFocus 2015 720p HDRIP HC x264 AAC REPACK Pimp4003\n &lt;a href=&quot;\nhttp://www.imdb.com/title/tt2381941/&quot; rel=&quot;nofollow&quot; target=&quot;_NEW&quot;&gt;\nhttp://www.imdb.com/title/tt2381941/&lt;/a&gt;\n\nIn the midst of veteran con man Nicky's latest scheme, a woman from his past - now an accomplished femme fatale - shows up and throws his plans for a loop.\n\nDirectors: Glenn Ficarra, John Requa\n\nWriters: Glenn Ficarra, John Requa\n\nStars: Will Smith, Margot Robbie, Rodrigo Santoro |See full cast and crew Â»\n\nVideo\n\nID : 1\n\nFormat : MPEG-4 Visual\n\nFormat profile : Simple@L3\n\nFormat settings, BVOP : No\n\nFormat settings, QPel : No\n\nFormat settings, GMC : No warppoints\n\nFormat settings, Matrix : Default (H.263)\n\nCodec ID : 20\n\nDuration : 1h 44mn\n\nBit rate : 2 420 Kbps\n\nWidth : 1 280 pixels\n\nHeight : 712 pixels\n\nDisplay aspect ratio : 16:9\n\nFrame rate mode : Variable\n\nFrame rate : 29.970 fps\n\nMinimum frame rate : 29.940 fps\n\nMaximum frame rate : 29.970 fps\n\nColor space : YUV\n\nChroma subsampling : 4:2:0\n\nBit depth : 8 bits\n\nScan type : Progressive\n\nCompression mode : Lossy\n\nBits/(Pixel*Frame) : 0.089\n\nStream size : 1.77 GiB (95%)\n\nWriting library : ZJMedia MPEG Encoder\n\nAudio\n\nID : 2\n\nFormat : AAC\n\nFormat/Info : Advanced Audio Codec\n\nFormat profile : LC\n\nCodec ID : 40\n\nDuration : 1h 44mn\n\nBit rate mode : Variable\n\nBit rate : 128 Kbps\n\nChannel(s) : 2 channels\n\nChannel positions : Front: L R\n\nSampling rate : 48.0 KHz\n\nCompression mode : Lossy\n\nStream size : 95.8 MiB (5%)","torrent":{"xt":"urn:btih:1e3bbb2c0c4c9f17aad1b1e29c7e6c1f1f7d8294","amp;dn":"Focus+2015+720p+HDRIP+HC+x264+AAC+REPACK+Pimp4003","amp;tr":["udp%3A%2F%2Ftracker.openbittorrent.com%3A80","udp%3A%2F%2Fopen.demonii.com%3A1337","udp%3A%2F%2Ftracker.coppersurfer.tk%3A6969","udp%3A%2F%2Fexodus.desync.com%3A6969"],"infoHash":"1e3bbb2c0c4c9f17aad1b1e29c7e6c1f1f7d8294","infoHashBuffer":{"type":"Buffer","data":[30,59,187,44,12,76,159,23,170,209,177,226,156,126,108,31,31,125,130,148]},"announce":[],"urlList":[]}}